<svg xmlns="http://www.w3.org/2000/svg" width="640" height="400" viewBox="0 0 640 400" role="img" aria-labelledby="title desc"><title id="title">Cows and a concrete delivery share the farm track</title><desc id="desc">A farmer leads three cows across the single lane. A concrete mixer waits outside the site gate; a prepared foundation and a small barn establish the two overlapping uses of the track.</desc><defs><clipPath id="frame"><rect width="640" height="400" rx="24"/></clipPath></defs><g clip-path="url(#frame)"><rect width="640" height="400" fill="#f5f2e8"/><g stroke="#3d554c" stroke-width="2.5" stroke-linecap="round" stroke-linejoin="round"><circle cx="542" cy="70" r="29" fill="#cf9b57" opacity=".45" stroke="none"/><path d="M0 173q126-65 274-4t366-20v251H0Z" fill="#b9c6aa" stroke="none"/><path d="M0 274q148-40 315-44t325-66v84q-163 39-291 51T0 381Z" fill="#ded7bf" stroke="none"/><path d="m452 151 47-43 83 13 36 47v70l-166-9Z" fill="#d0c19e"/><path d="m440 153 61-56 124 67-43-8-83-48-47 43Z" fill="#596d5e"/><path d="M507 160h42v63h-42Z" fill="#899879"/><path d="M0 204h180m-166-22v48m39-59v52m41-62v56m42-61v54m39-61v51" fill="none" stroke="#899879" stroke-width="4"/><path d="m273 355 111-53 93 16-102 65Z" fill="#b4bca8"/><path d="m277 342 110-51 98 20v15l-110 58-98-28Z" fill="#d0c19e"/><path d="m287 341 99-43 77 16-93 48Z" fill="#9cae9a"/><path d="m310 338 72 16m-48-29 72 15m-46-27 74 14m-80-3-35 29m63-39-35 31m65-41-36 33" fill="none" stroke="#f5f2e8"/><path d="M224 287v87m-8-85h16m4 65 26-73m-19 72 26-71m-27 35 14 5m-8-21 14 5" fill="none" stroke="#899879" stroke-width="4"/><g transform="translate(34 261)"><path d="M0 35h152v29H0Z" fill="#cf9b57"/><path d="M115-9h41l27 44v29h-68Z" fill="#b86f50"/><path d="M124 0h25l18 26h-43Z" fill="#d8e0d5"/><path d="M17-8 39-29 88-20 108 4 91 31 41 23Z" fill="#d8e0d5"/><path d="m38-28 29 22-27 29m49-44L67-6l26 36" fill="none"/><path d="M10 1 1 34h24" fill="none" stroke-width="5"/><circle cx="37" cy="66" r="17" fill="#39594c"/><circle cx="147" cy="66" r="17" fill="#39594c"/><circle cx="37" cy="66" r="7" fill="#dfc49e"/><circle cx="147" cy="66" r="7" fill="#dfc49e"/></g><g transform="translate(210 218) scale(0.7)"><path d="M-37 0v31m14-27v30M21 4v29M38-1v30" fill="none" stroke-width="5"/><path d="M-43-17q-15-3-12 24" fill="none"/><rect x="-44" y="-26" width="84" height="43" rx="17" fill="#fffdf8"/><path d="M-25-26q-19 11-5 28l20-3 8-25m20 4q-8 17 9 29l13-10-4-21" fill="#596d5e" stroke="none"/><path d="m38-22 9-11 13 8 6 28-25 2Z" fill="#fffdf8"/><path d="m42-29-5-10m19 10 7-8M39-18l-11-7m34 7 10-6" fill="none"/><ellipse cx="53" cy="2" rx="14" ry="8" fill="#d6b594"/><circle cx="49" cy="-15" r="2" fill="#3d554c" stroke="none"/></g><g transform="translate(318 207) scale(0.85)"><path d="M-37 0v31m14-27v30M21 4v29M38-1v30" fill="none" stroke-width="5"/><path d="M-43-17q-15-3-12 24" fill="none"/><rect x="-44" y="-26" width="84" height="43" rx="17" fill="#fffdf8"/><path d="M-25-26q-19 11-5 28l20-3 8-25m20 4q-8 17 9 29l13-10-4-21" fill="#596d5e" stroke="none"/><path d="m38-22 9-11 13 8 6 28-25 2Z" fill="#fffdf8"/><path d="m42-29-5-10m19 10 7-8M39-18l-11-7m34 7 10-6" fill="none"/><ellipse cx="53" cy="2" rx="14" ry="8" fill="#d6b594"/><circle cx="49" cy="-15" r="2" fill="#3d554c" stroke="none"/></g><g transform="translate(432 189) scale(0.7)"><path d="M-37 0v31m14-27v30M21 4v29M38-1v30" fill="none" stroke-width="5"/><path d="M-43-17q-15-3-12 24" fill="none"/><rect x="-44" y="-26" width="84" height="43" rx="17" fill="#fffdf8"/><path d="M-25-26q-19 11-5 28l20-3 8-25m20 4q-8 17 9 29l13-10-4-21" fill="#596d5e" stroke="none"/><path d="m38-22 9-11 13 8 6 28-25 2Z" fill="#fffdf8"/><path d="m42-29-5-10m19 10 7-8M39-18l-11-7m34 7 10-6" fill="none"/><ellipse cx="53" cy="2" rx="14" ry="8" fill="#d6b594"/><circle cx="49" cy="-15" r="2" fill="#3d554c" stroke="none"/></g><g transform="translate(515 208) scale(0.75)"><circle cy="-29" r="8" fill="#dfc49e"/><path d="M-6-18h12l5 29H-10Z" fill="#b86f50"/><path d="M-5 11-8 35m14-24 8 24M-6-13-17 6m23-19L19 0" fill="none" stroke-width="4"/></g></g></g></svg>
