<svg xmlns="http://www.w3.org/2000/svg" width="640" height="360" viewBox="0 0 640 360"><rect width="640" height="360" rx="14" fill="#f0f2e8"/><defs><marker id="a" viewBox="0 0 10 10" refX="9" refY="5" markerWidth="6" markerHeight="6" orient="auto"><path d="M0 0 10 5 0 10z" fill="#537565"/></marker></defs><g font-family="Georgia,serif" fill="#26352d"><text x="28" y="39" font-size="24">Assumptions before answers</text></g><g font-family="system-ui,sans-serif" font-size="15" fill="#26352d"><text x="28" y="77" font-size="12" letter-spacing="2">1 · INSPECT A PATH</text><path d="M300 122 177 158 M340 122 465 158 M215 186 427 186" fill="none" stroke="#537565" stroke-width="2.5" marker-end="url(#a)"/><rect x="238" y="89" width="164" height="42" rx="8" fill="#f4dfa9" stroke="#a77934"/><text x="320" y="115" text-anchor="middle">Team capacity</text><rect x="71" y="165" width="155" height="42" rx="8" fill="#fffdf7" stroke="#537565"/><text x="148" y="191" text-anchor="middle">Automation</text><rect x="426" y="165" width="155" height="42" rx="8" fill="#fffdf7" stroke="#537565"/><text x="503" y="191" text-anchor="middle">Throughput</text><text x="28" y="246" font-size="12" letter-spacing="2">2 · SIMULATE A POLICY</text><path d="M179 296H238 M407 296H466" stroke="#537565" stroke-width="2.5" marker-end="url(#a)"/><rect x="28" y="270" width="151" height="51" rx="8" fill="#285d4a"/><text x="103" y="301" text-anchor="middle" fill="white">Set automation</text><rect x="238" y="270" width="169" height="51" rx="8" fill="#fffdf7" stroke="#537565"/><text x="322" y="292" text-anchor="middle">Rework → flow</text><text x="322" y="310" text-anchor="middle" font-size="12">assumed equations</text><rect x="466" y="270" width="145" height="51" rx="8" fill="#f4dfa9" stroke="#a77934"/><text x="538" y="301" text-anchor="middle">Value score</text></g></svg>
